<?xml version="1.0" encoding="UTF-8" standalone="no"?>
<svg
   xmlns:dc="http://purl.org/dc/elements/1.1/"
   xmlns:cc="http://creativecommons.org/ns#"
   xmlns:rdf="http://www.w3.org/1999/02/22-rdf-syntax-ns#"
   xmlns:svg="http://www.w3.org/2000/svg"
   xmlns="http://www.w3.org/2000/svg"
   viewBox="0 0 421.21466 340.33066"
   height="340.33066"
   width="421.21466"
   xml:space="preserve"
   id="svg2"
   version="1.1"><metadata
     id="metadata8"><rdf:RDF><cc:Work
         rdf:about=""><dc:format>image/svg+xml</dc:format><dc:type
           rdf:resource="http://purl.org/dc/dcmitype/StillImage" /></cc:Work></rdf:RDF></metadata><defs
     id="defs6"><clipPath
       id="clipPath18"
       clipPathUnits="userSpaceOnUse"><path
         id="path16"
         d="M 0,255.248 H 315.911 V 0 H 0 Z" /></clipPath></defs><g
     transform="matrix(1.3333333,0,0,-1.3333333,0,340.33067)"
     id="g10"><g
       id="g12"><g
         clip-path="url(#clipPath18)"
         id="g14"><g
           transform="translate(230.9628,53.2753)"
           id="g20"><path
             id="path22"
             style="fill:#e41d25;fill-opacity:1;fill-rule:nonzero;stroke:none"
             d="m 0,0 h -3.773 c -0.723,0 -1.046,0.978 -0.48,1.465 l 1.082,0.939 c 0.924,0.798 2.076,1.234 3.262,1.234 h 3.773 c 0.726,0 1.049,-0.975 0.482,-1.469 L 3.265,1.234 C 2.341,0.436 1.188,0 0,0" /></g><g
           transform="translate(235.9003,58.577)"
           id="g24"><path
             id="path26"
             style="fill:#e41d25;fill-opacity:1;fill-rule:nonzero;stroke:none"
             d="M 0,0 -3.771,-0.262 C -4.483,-0.308 -4.877,0.643 -4.35,1.167 l 1.022,1.011 c 0.862,0.863 1.98,1.375 3.164,1.454 L 3.6,3.896 C 4.322,3.948 4.712,2.992 4.182,2.471 L 3.167,1.459 C 2.301,0.597 1.186,0.085 0,0" /></g><g
           transform="translate(240.4569,64.2108)"
           id="g28"><path
             id="path30"
             style="fill:#e41d25;fill-opacity:1;fill-rule:nonzero;stroke:none"
             d="M 0,0 -3.743,-0.527 C -4.456,-0.628 -4.91,0.298 -4.42,0.859 l 0.94,1.076 c 0.804,0.919 1.883,1.511 3.056,1.672 l 3.743,0.53 C 4.036,4.238 4.486,3.315 3.999,2.757 L 3.058,1.672 C 2.249,0.752 1.174,0.164 0,0" /></g><g
           transform="translate(244.6054,70.1395)"
           id="g32"><path
             id="path34"
             style="fill:#e41d25;fill-opacity:1;fill-rule:nonzero;stroke:none"
             d="m 0,0 -3.697,-0.774 c -0.707,-0.155 -1.222,0.734 -0.772,1.329 l 0.864,1.142 c 0.737,0.972 1.773,1.639 2.931,1.886 l 3.695,0.78 C 3.728,4.516 4.243,3.626 3.795,3.032 L 2.926,1.889 C 2.191,0.92 1.155,0.256 0,0" /></g><g
           transform="translate(248.3241,76.3553)"
           id="g36"><path
             id="path38"
             style="fill:#e41d25;fill-opacity:1;fill-rule:nonzero;stroke:none"
             d="m 0,0 -3.624,-1.039 c -0.698,-0.198 -1.274,0.652 -0.872,1.28 l 0.787,1.197 c 0.664,1.02 1.654,1.755 2.791,2.084 L 2.713,4.558 C 3.411,4.762 3.99,3.912 3.585,3.285 L 2.798,2.084 C 2.128,1.063 1.144,0.326 0,0" /></g><g
           transform="translate(251.6063,82.8143)"
           id="g40"><path
             id="path42"
             style="fill:#e41d25;fill-opacity:1;fill-rule:nonzero;stroke:none"
             d="m 0,0 -3.541,-1.289 c -0.683,-0.253 -1.317,0.558 -0.954,1.21 l 0.694,1.249 c 0.598,1.066 1.528,1.871 2.647,2.273 L 2.39,4.732 C 3.073,4.982 3.707,4.171 3.348,3.522 L 2.646,2.27 C 2.055,1.204 1.119,0.403 0,0" /></g><g
           transform="translate(254.4325,89.4872)"
           id="g44"><path
             id="path46"
             style="fill:#e41d25;fill-opacity:1;fill-rule:nonzero;stroke:none"
             d="m 0,0 -3.45,-1.542 c -0.658,-0.292 -1.348,0.47 -1.037,1.146 l 0.613,1.292 c 0.518,1.109 1.393,1.974 2.478,2.456 L 2.051,4.887 C 2.713,5.18 3.404,4.415 3.088,3.745 L 2.475,2.447 C 1.954,1.344 1.082,0.479 0,0" /></g><g
           transform="translate(256.7851,96.3304)"
           id="g48"><path
             id="path50"
             style="fill:#e41d25;fill-opacity:1;fill-rule:nonzero;stroke:none"
             d="m 0,0 -3.337,-1.77 c -0.637,-0.341 -1.381,0.374 -1.109,1.063 l 0.514,1.338 c 0.449,1.14 1.253,2.063 2.301,2.623 l 3.335,1.77 C 2.338,5.366 3.085,4.653 2.813,3.958 L 2.302,2.624 C 1.856,1.481 1.049,0.555 0,0" /></g><g
           transform="translate(258.6542,103.326)"
           id="g52"><path
             id="path54"
             style="fill:#e41d25;fill-opacity:1;fill-rule:nonzero;stroke:none"
             d="m 0,0 -3.204,-2.001 c -0.612,-0.381 -1.399,0.28 -1.186,0.989 l 0.424,1.368 c 0.362,1.167 1.107,2.148 2.115,2.776 L 1.347,5.128 C 1.963,5.515 2.752,4.857 2.529,4.144 L 2.109,2.779 C 1.752,1.606 1.003,0.627 0,0" /></g><g
           transform="translate(260.0253,110.4403)"
           id="g56"><path
             id="path58"
             style="fill:#e41d25;fill-opacity:1;fill-rule:nonzero;stroke:none"
             d="m 0,0 -3.054,-2.218 c -0.585,-0.427 -1.417,0.174 -1.25,0.896 l 0.326,1.395 c 0.278,1.192 0.955,2.219 1.915,2.916 L 0.991,5.208 C 1.576,5.637 2.405,5.03 2.241,4.305 L 1.911,2.91 C 1.637,1.722 0.957,0.695 0,0" /></g><g
           transform="translate(260.9032,117.6219)"
           id="g60"><path
             id="path62"
             style="fill:#e41d25;fill-opacity:1;fill-rule:nonzero;stroke:none"
             d="m 0,0 -2.887,-2.422 c -0.56,-0.466 -1.435,0.079 -1.313,0.814 l 0.225,1.41 c 0.196,1.21 0.793,2.279 1.704,3.044 L 0.622,5.271 C 1.18,5.734 2.052,5.192 1.93,4.461 L 1.707,3.044 C 1.512,1.837 0.908,0.768 0,0" /></g><g
           transform="translate(261.2753,124.8583)"
           id="g64"><path
             id="path66"
             style="fill:#e41d25;fill-opacity:1;fill-rule:nonzero;stroke:none"
             d="m 0,0 -2.716,-2.624 c -0.524,-0.502 -1.43,-0.023 -1.365,0.72 l 0.128,1.425 c 0.109,1.219 0.634,2.335 1.49,3.157 L 0.25,5.299 C 0.771,5.801 1.686,5.32 1.612,4.576 L 1.484,3.15 C 1.381,1.938 0.856,0.823 0,0" /></g><g
           transform="translate(261.1415,132.1004)"
           id="g68"><path
             id="path70"
             style="fill:#e41d25;fill-opacity:1;fill-rule:nonzero;stroke:none"
             d="m 0,0 -2.527,-2.803 c -0.488,-0.539 -1.423,-0.125 -1.409,0.618 l 0.025,1.436 c 0.027,1.218 0.473,2.364 1.265,3.251 l 2.524,2.803 C 0.362,5.841 1.307,5.427 1.289,4.677 L 1.262,3.248 C 1.237,2.026 0.789,0.881 0,0" /></g><g
           transform="translate(260.5009,139.3099)"
           id="g72"><path
             id="path74"
             style="fill:#e41d25;fill-opacity:1;fill-rule:nonzero;stroke:none"
             d="m 0,0 -2.322,-2.968 c -0.446,-0.579 -1.414,-0.228 -1.454,0.518 l -0.074,1.435 c -0.057,1.213 0.308,2.392 1.039,3.328 l 2.327,2.97 C -0.036,5.856 0.924,5.508 0.967,4.765 L 1.037,3.33 C 1.098,2.108 0.729,0.938 0,0" /></g><g
           transform="translate(259.3642,146.4637)"
           id="g76"><path
             id="path78"
             style="fill:#e41d25;fill-opacity:1;fill-rule:nonzero;stroke:none"
             d="m 0,0 -2.112,-3.126 c -0.406,-0.603 -1.397,-0.32 -1.488,0.418 l -0.171,1.422 c -0.146,1.216 0.134,2.413 0.799,3.394 l 2.116,3.123 C -0.451,5.835 0.536,5.554 0.625,4.814 L 0.799,3.391 C 0.945,2.179 0.658,0.984 0,0" /></g><g
           transform="translate(257.7216,153.514)"
           id="g80"><path
             id="path82"
             style="fill:#e41d25;fill-opacity:1;fill-rule:nonzero;stroke:none"
             d="m 0,0 -1.884,-3.263 c -0.363,-0.628 -1.372,-0.414 -1.512,0.317 l -0.271,1.407 c -0.229,1.195 -0.027,2.411 0.566,3.44 l 1.884,3.264 c 0.361,0.63 1.372,0.417 1.509,-0.317 L 0.563,3.443 C 0.792,2.249 0.591,1.03 0,0" /></g><g
           transform="translate(255.5995,160.4427)"
           id="g84"><path
             id="path86"
             style="fill:#e41d25;fill-opacity:1;fill-rule:nonzero;stroke:none"
             d="m 0,0 -1.655,-3.397 c -0.314,-0.643 -1.341,-0.506 -1.524,0.213 l -0.369,1.383 c -0.316,1.179 -0.204,2.407 0.315,3.473 l 1.658,3.392 c 0.313,0.649 1.341,0.506 1.526,-0.208 L 0.32,3.47 C 0.632,2.292 0.516,1.063 0,0" /></g><g
           transform="translate(252.997,167.1976)"
           id="g88"><path
             id="path90"
             style="fill:#e41d25;fill-opacity:1;fill-rule:nonzero;stroke:none"
             d="m 0,0 -1.414,-3.501 c -0.274,-0.667 -1.299,-0.6 -1.537,0.11 l -0.466,1.352 c -0.399,1.155 -0.372,2.383 0.073,3.486 l 1.414,3.498 c 0.275,0.671 1.305,0.603 1.536,-0.104 L 0.073,3.485 C 0.469,2.328 0.441,1.1 0,0" /></g><g
           transform="translate(249.9276,173.7635)"
           id="g92"><path
             id="path94"
             style="fill:#e41d25;fill-opacity:1;fill-rule:nonzero;stroke:none"
             d="m 0,0 -1.174,-3.592 c -0.217,-0.686 -1.247,-0.692 -1.539,-0.006 l -0.552,1.322 c -0.475,1.124 -0.533,2.355 -0.168,3.48 l 1.165,3.592 c 0.225,0.685 1.252,0.691 1.542,0 L -0.165,3.479 C 0.311,2.349 0.365,1.125 0,0" /></g><g
           transform="translate(246.4071,180.0858)"
           id="g96"><path
             id="path98"
             style="fill:#e41d25;fill-opacity:1;fill-rule:nonzero;stroke:none"
             d="m 0,0 -0.915,-3.659 c -0.171,-0.707 -1.2,-0.78 -1.536,-0.116 l -0.653,1.283 c -0.551,1.087 -0.688,2.306 -0.408,3.458 l 0.915,3.662 c 0.176,0.701 1.203,0.774 1.542,0.11 L -0.409,3.461 C 0.143,2.374 0.286,1.149 0,0" /></g><g
           transform="translate(242.4569,186.1551)"
           id="g100"><path
             id="path102"
             style="fill:#e41d25;fill-opacity:1;fill-rule:nonzero;stroke:none"
             d="M 0,0 -0.655,-3.714 C -0.78,-4.427 -1.802,-4.573 -2.186,-3.937 l -0.735,1.231 c -0.624,1.052 -0.856,2.261 -0.645,3.425 l 0.652,3.718 c 0.128,0.712 1.143,0.855 1.526,0.222 L -0.652,3.428 C -0.031,2.376 0.204,1.17 0,0" /></g><g
           transform="translate(238.0888,191.932)"
           id="g104"><path
             id="path106"
             style="fill:#e41d25;fill-opacity:1;fill-rule:nonzero;stroke:none"
             d="m 0,0 -0.396,-3.75 c -0.071,-0.72 -1.08,-0.936 -1.506,-0.324 L -2.719,-2.9 c -0.698,1.002 -1.014,2.193 -0.89,3.369 l 0.396,3.751 c 0.076,0.725 1.085,0.938 1.503,0.329 L -0.887,3.37 C -0.186,2.371 0.125,1.186 0,0" /></g><g
           transform="translate(233.328,197.3983)"
           id="g108"><path
             id="path110"
             style="fill:#e41d25;fill-opacity:1;fill-rule:nonzero;stroke:none"
             d="m 0,0 -0.128,-3.772 c -0.025,-0.722 -1.016,-1.009 -1.481,-0.43 l -0.894,1.116 c -0.774,0.953 -1.167,2.114 -1.124,3.299 l 0.13,3.772 c 0.025,0.725 1.013,1.009 1.482,0.427 L -1.116,3.3 C -0.351,2.349 0.049,1.182 0,0" /></g><g
           transform="translate(228.204,202.514)"
           id="g112"><path
             id="path114"
             style="fill:#e41d25;fill-opacity:1;fill-rule:nonzero;stroke:none"
             d="M 0,0 0.128,-3.775 C 0.155,-4.5 -0.811,-4.851 -1.316,-4.309 l -0.976,1.052 c -0.832,0.895 -1.305,2.032 -1.354,3.214 l -0.13,3.775 c -0.019,0.722 0.944,1.076 1.457,0.534 L -1.351,3.214 C -0.521,2.318 -0.043,1.179 0,0" /></g><g
           transform="translate(222.7323,207.2547)"
           id="g116"><path
             id="path118"
             style="fill:#e41d25;fill-opacity:1;fill-rule:nonzero;stroke:none"
             d="m 0,0 0.394,-3.75 c 0.073,-0.72 -0.86,-1.146 -1.406,-0.635 l -1.049,0.982 c -0.889,0.832 -1.441,1.938 -1.569,3.113 l -0.393,3.751 c -0.077,0.72 0.866,1.137 1.405,0.634 L -1.569,3.111 C -0.677,2.279 -0.125,1.179 0,0" /></g><g
           transform="translate(216.9442,211.6087)"
           id="g120"><path
             id="path122"
             style="fill:#e41d25;fill-opacity:1;fill-rule:nonzero;stroke:none"
             d="m 0,0 0.652,-3.717 c 0.125,-0.716 -0.783,-1.198 -1.365,-0.728 l -1.109,0.902 c -0.946,0.773 -1.574,1.828 -1.781,2.998 l -0.652,3.713 c -0.128,0.717 0.78,1.201 1.357,0.732 L -1.783,2.995 C -0.838,2.224 -0.21,1.167 0,0" /></g><g
           transform="translate(210.8602,215.5453)"
           id="g124"><path
             id="path126"
             style="fill:#e41d25;fill-opacity:1;fill-rule:nonzero;stroke:none"
             d="m 0,0 0.915,-3.662 c 0.177,-0.701 -0.692,-1.253 -1.308,-0.82 l -1.168,0.826 c -0.996,0.7 -1.704,1.715 -1.987,2.861 l -0.917,3.662 c -0.171,0.707 0.698,1.249 1.311,0.823 L -1.987,2.867 C -0.99,2.16 -0.283,1.146 0,0" /></g><g
           transform="translate(204.5204,219.0526)"
           id="g128"><path
             id="path130"
             style="fill:#e41d25;fill-opacity:1;fill-rule:nonzero;stroke:none"
             d="M 0,0 1.168,-3.589 C 1.39,-4.278 0.558,-4.887 -0.079,-4.5 l -1.226,0.743 c -1.045,0.633 -1.813,1.588 -2.178,2.718 L -4.651,2.55 c -0.226,0.689 0.606,1.295 1.244,0.908 L -2.182,2.714 C -1.137,2.087 -0.365,1.127 0,0" /></g><g
           transform="translate(197.952,222.099)"
           id="g132"><path
             id="path134"
             style="fill:#e41d25;fill-opacity:1;fill-rule:nonzero;stroke:none"
             d="M 0,0 1.417,-3.495 C 1.691,-4.165 0.899,-4.829 0.234,-4.491 l -1.267,0.652 c -1.092,0.558 -1.924,1.463 -2.368,2.562 l -1.415,3.498 c -0.271,0.671 0.512,1.335 1.173,0.997 L -2.362,2.563 C -1.274,2.008 -0.445,1.103 0,0" /></g><g
           transform="translate(191.1854,224.6888)"
           id="g136"><path
             id="path138"
             style="fill:#e41d25;fill-opacity:1;fill-rule:nonzero;stroke:none"
             d="M 0,0 1.655,-3.391 C 1.975,-4.04 1.237,-4.753 0.552,-4.466 l -1.321,0.569 c -1.121,0.479 -2.02,1.319 -2.539,2.389 l -1.654,3.391 c -0.314,0.646 0.42,1.365 1.107,1.073 L -2.539,2.389 C -1.411,1.907 -0.515,1.066 0,0" /></g><g
           transform="translate(184.2567,226.8006)"
           id="g140"><path
             id="path142"
             style="fill:#e41d25;fill-opacity:1;fill-rule:nonzero;stroke:none"
             d="M 0,0 1.891,-3.267 C 2.25,-3.894 1.567,-4.662 0.86,-4.415 l -1.353,0.469 c -1.155,0.399 -2.11,1.179 -2.701,2.203 L -5.08,1.523 c -0.366,0.631 0.325,1.395 1.026,1.152 L -2.703,2.203 C -1.545,1.804 -0.594,1.027 0,0" /></g><g
           transform="translate(177.1952,228.4247)"
           id="g144"><path
             id="path146"
             style="fill:#e41d25;fill-opacity:1;fill-rule:nonzero;stroke:none"
             d="m 0,0 2.115,-3.126 c 0.406,-0.61 -0.232,-1.42 -0.948,-1.222 l -1.381,0.372 c -1.182,0.323 -2.185,1.033 -2.849,2.011 l -2.11,3.132 c -0.402,0.597 0.223,1.41 0.944,1.222 L -2.844,2.008 C -1.668,1.688 -0.658,0.981 0,0" /></g><g
           transform="translate(170.038,229.5487)"
           id="g148"><path
             id="path150"
             style="fill:#e41d25;fill-opacity:1;fill-rule:nonzero;stroke:none"
             d="M 0,0 2.325,-2.971 C 2.771,-3.543 2.197,-4.399 1.466,-4.25 l -1.403,0.274 c -1.203,0.234 -2.251,0.874 -2.983,1.81 l -2.319,2.974 c -0.448,0.567 0.125,1.42 0.856,1.279 l 1.402,-0.28 C -1.78,1.572 -0.729,0.938 0,0" /></g><g
           transform="translate(162.8261,230.1732)"
           id="g152"><path
             id="path154"
             style="fill:#e41d25;fill-opacity:1;fill-rule:nonzero;stroke:none"
             d="M 0,0 2.524,-2.803 C 3.009,-3.342 2.497,-4.235 1.753,-4.138 l -1.414,0.171 c -1.22,0.158 -2.311,0.716 -3.107,1.6 l -2.526,2.806 c -0.478,0.539 0.027,1.426 0.772,1.334 L -3.103,1.597 C -1.89,1.451 -0.799,0.88 0,0" /></g><g
           transform="translate(155.5809,230.2923)"
           id="g156"><path
             id="path158"
             style="fill:#e41d25;fill-opacity:1;fill-rule:nonzero;stroke:none"
             d="m 0,0 2.719,-2.626 c 0.515,-0.5 0.07,-1.423 -0.677,-1.384 l -1.426,0.082 c -1.222,0.064 -2.35,0.549 -3.204,1.371 l -2.719,2.624 c -0.521,0.499 -0.073,1.429 0.671,1.389 l 1.43,-0.082 C -1.981,1.307 -0.854,0.823 0,0" /></g><g
           transform="translate(148.3485,229.9051)"
           id="g160"><path
             id="path162"
             style="fill:#e41d25;fill-opacity:1;fill-rule:nonzero;stroke:none"
             d="M 0,0 2.889,-2.431 C 3.447,-2.888 3.06,-3.845 2.316,-3.857 L 0.884,-3.875 C -0.339,-3.9 -1.5,-3.495 -2.405,-2.73 l -2.893,2.425 c -0.557,0.467 -0.174,1.42 0.57,1.43 l 1.432,0.021 C -2.07,1.164 -0.912,0.759 0,0" /></g><g
           transform="translate(141.161,229.0096)"
           id="g164"><path
             id="path166"
             style="fill:#e41d25;fill-opacity:1;fill-rule:nonzero;stroke:none"
             d="M 0,0 3.054,-2.212 C 3.636,-2.636 3.322,-3.617 2.581,-3.681 L 1.152,-3.8 c -1.216,-0.106 -2.408,0.22 -3.365,0.915 l -3.052,2.218 c -0.585,0.426 -0.273,1.407 0.473,1.471 l 1.427,0.119 C -2.149,1.023 -0.963,0.704 0,0" /></g><g
           transform="translate(134.0468,227.6263)"
           id="g168"><path
             id="path170"
             style="fill:#e41d25;fill-opacity:1;fill-rule:nonzero;stroke:none"
             d="M 0,0 3.203,-1.996 C 3.813,-2.383 3.572,-3.379 2.835,-3.498 L 1.417,-3.717 c -1.204,-0.189 -2.411,0.049 -3.42,0.682 l -3.2,1.996 c -0.616,0.387 -0.366,1.383 0.366,1.502 L -3.42,0.679 C -2.213,0.871 -1.006,0.627 0,0" /></g><g
           transform="translate(127.0546,225.7401)"
           id="g172"><path
             id="path174"
             style="fill:#e41d25;fill-opacity:1;fill-rule:nonzero;stroke:none"
             d="M 0,0 3.334,-1.764 C 3.969,-2.114 3.798,-3.123 3.069,-3.288 L 1.673,-3.607 c -1.194,-0.271 -2.417,-0.116 -3.456,0.444 l -3.341,1.767 c -0.637,0.339 -0.46,1.356 0.266,1.515 l 1.395,0.329 C -2.271,0.716 -1.052,0.561 0,0" /></g><g
           transform="translate(120.202,223.3758)"
           id="g176"><path
             id="path178"
             style="fill:#e41d25;fill-opacity:1;fill-rule:nonzero;stroke:none"
             d="M 0,0 3.451,-1.527 C 4.109,-1.828 4.012,-2.849 3.299,-3.068 L 1.921,-3.482 c -1.168,-0.354 -2.4,-0.287 -3.482,0.197 l -3.447,1.533 c -0.661,0.298 -0.557,1.319 0.155,1.539 L -3.48,0.201 C -2.31,0.552 -1.082,0.484 0,0" /></g><g
           transform="translate(113.5399,220.5453)"
           id="g180"><path
             id="path182"
             style="fill:#e41d25;fill-opacity:1;fill-rule:nonzero;stroke:none"
             d="m 0,0 3.548,-1.292 c 0.68,-0.25 0.648,-1.277 -0.049,-1.541 L 2.157,-3.342 C 1.023,-3.781 -0.217,-3.796 -1.329,-3.388 l -3.546,1.286 c -0.676,0.249 -0.646,1.279 0.05,1.544 l 1.341,0.509 C -2.348,0.387 -1.113,0.402 0,0" /></g><g
           transform="translate(107.0897,217.2484)"
           id="g184"><path
             id="path186"
             style="fill:#e41d25;fill-opacity:1;fill-rule:nonzero;stroke:none"
             d="M 0,0 3.627,-1.042 C 4.322,-1.24 4.365,-2.27 3.688,-2.583 L 2.387,-3.181 C 1.274,-3.693 0.049,-3.796 -1.085,-3.473 l -3.637,1.041 c -0.691,0.202 -0.731,1.228 -0.054,1.542 l 1.301,0.601 C -2.368,0.229 -1.14,0.326 0,0" /></g><g
           transform="translate(100.8808,213.513)"
           id="g188"><path
             id="path190"
             style="fill:#e41d25;fill-opacity:1;fill-rule:nonzero;stroke:none"
             d="m 0,0 3.694,-0.786 c 0.707,-0.152 0.821,-1.17 0.164,-1.533 L 2.606,-3.01 C 1.536,-3.598 0.32,-3.784 -0.841,-3.541 l -3.691,0.787 c -0.707,0.149 -0.823,1.172 -0.171,1.532 l 1.262,0.692 C -2.371,0.058 -1.158,0.244 0,0" /></g><g
           transform="translate(94.952,209.3509)"
           id="g192"><path
             id="path194"
             style="fill:#e41d25;fill-opacity:1;fill-rule:nonzero;stroke:none"
             d="M 0,0 3.737,-0.524 C 4.453,-0.627 4.64,-1.636 4.012,-2.042 L 2.805,-2.818 C 1.78,-3.482 0.579,-3.753 -0.591,-3.586 l -3.743,0.521 c -0.717,0.104 -0.893,1.115 -0.271,1.517 l 1.201,0.783 C -2.371,-0.104 -1.173,0.165 0,0" /></g><g
           transform="translate(89.329,204.787)"
           id="g196"><path
             id="path198"
             style="fill:#e41d25;fill-opacity:1;fill-rule:nonzero;stroke:none"
             d="M 0,0 3.764,-0.262 C 4.486,-0.308 4.739,-1.31 4.139,-1.758 L 2.989,-2.611 C 2.018,-3.349 0.838,-3.699 -0.345,-3.62 l -3.764,0.262 c -0.726,0.052 -0.979,1.048 -0.378,1.496 L -3.341,-1 C -2.369,-0.268 -1.187,0.085 0,0" /></g><g
           transform="translate(84.0341,199.8509)"
           id="g200"><path
             id="path202"
             style="fill:#e41d25;fill-opacity:1;fill-rule:nonzero;stroke:none"
             d="m 0,0 h 3.776 c 0.72,0 1.046,-0.981 0.479,-1.472 L 3.173,-2.407 C 2.249,-3.206 1.101,-3.641 -0.088,-3.641 h -3.77 c -0.729,0 -1.052,0.981 -0.486,1.466 l 1.082,0.935 C -2.338,-0.442 -1.188,0 0,0" /></g><g
           transform="translate(79.0995,194.5433)"
           id="g204"><path
             id="path206"
             style="fill:#e41d25;fill-opacity:1;fill-rule:nonzero;stroke:none"
             d="M 0,0 3.768,0.262 C 4.486,0.314 4.877,-0.64 4.353,-1.167 L 3.328,-2.176 C 2.466,-3.035 1.347,-3.55 0.168,-3.632 L -3.6,-3.897 c -0.722,-0.049 -1.112,0.905 -0.582,1.429 l 1.015,1.009 C -2.301,-0.594 -1.186,-0.085 0,0" /></g><g
           transform="translate(74.5487,188.9159)"
           id="g208"><path
             id="path210"
             style="fill:#e41d25;fill-opacity:1;fill-rule:nonzero;stroke:none"
             d="M 0,0 3.74,0.521 C 4.453,0.622 4.907,-0.305 4.417,-0.862 L 3.475,-1.941 C 2.67,-2.861 1.591,-3.453 0.418,-3.614 l -3.737,-0.53 c -0.716,-0.101 -1.171,0.823 -0.686,1.39 l 0.944,1.075 C -2.256,-0.762 -1.177,-0.162 0,0" /></g><g
           transform="translate(70.3974,182.9774)"
           id="g212"><path
             id="path214"
             style="fill:#e41d25;fill-opacity:1;fill-rule:nonzero;stroke:none"
             d="M 0,0 3.691,0.783 C 4.401,0.932 4.92,0.045 4.466,-0.548 L 3.603,-1.691 C 2.865,-2.663 1.829,-3.327 0.668,-3.574 l -3.691,-0.783 c -0.707,-0.152 -1.223,0.737 -0.775,1.329 l 0.868,1.139 C -2.191,-0.911 -1.155,-0.244 0,0" /></g><g
           transform="translate(66.6698,176.765)"
           id="g216"><path
             id="path218"
             style="fill:#e41d25;fill-opacity:1;fill-rule:nonzero;stroke:none"
             d="M 0,0 3.63,1.045 C 4.325,1.243 4.904,0.387 4.499,-0.232 l -0.787,-1.2 C 3.045,-2.459 2.061,-3.193 0.917,-3.522 l -3.627,-1.04 c -0.692,-0.2 -1.271,0.653 -0.869,1.277 l 0.787,1.201 C -2.125,-1.063 -1.138,-0.326 0,0" /></g><g
           transform="translate(63.3934,170.3114)"
           id="g220"><path
             id="path222"
             style="fill:#e41d25;fill-opacity:1;fill-rule:nonzero;stroke:none"
             d="m 0,0 3.548,1.286 c 0.676,0.25 1.313,-0.561 0.95,-1.21 L 3.8,-1.176 C 3.203,-2.245 2.273,-3.05 1.154,-3.446 L -2.391,-4.741 C -3.07,-4.987 -3.71,-4.18 -3.348,-3.528 l 0.702,1.252 C -2.049,-1.209 -1.116,-0.405 0,0" /></g><g
           transform="translate(60.5673,163.6449)"
           id="g224"><path
             id="path226"
             style="fill:#e41d25;fill-opacity:1;fill-rule:nonzero;stroke:none"
             d="M 0,0 3.447,1.53 C 4.108,1.825 4.798,1.063 4.483,0.384 L 3.874,-0.911 C 3.356,-2.017 2.481,-2.879 1.396,-3.363 l -3.451,-1.536 c -0.658,-0.289 -1.349,0.472 -1.03,1.142 l 0.606,1.299 C -1.96,-1.353 -1.082,-0.487 0,0" /></g><g
           transform="translate(58.2147,156.7928)"
           id="g228"><path
             id="path230"
             style="fill:#e41d25;fill-opacity:1;fill-rule:nonzero;stroke:none"
             d="M 0,0 3.337,1.77 C 3.974,2.108 4.721,1.396 4.45,0.704 L 3.932,-0.634 C 3.489,-1.771 2.679,-2.7 1.63,-3.251 l -3.331,-1.774 c -0.641,-0.341 -1.384,0.369 -1.11,1.064 l 0.509,1.34 C -1.854,-1.484 -1.043,-0.561 0,0" /></g><g
           transform="translate(56.3485,149.7938)"
           id="g232"><path
             id="path234"
             style="fill:#e41d25;fill-opacity:1;fill-rule:nonzero;stroke:none"
             d="M 0,0 3.201,2.002 C 3.813,2.383 4.603,1.722 4.387,1.015 L 3.966,-0.356 C 3.6,-1.523 2.856,-2.501 1.854,-3.132 l -3.208,-1.995 c -0.609,-0.388 -1.401,0.271 -1.178,0.986 l 0.417,1.366 C -1.752,-1.605 -1.006,-0.627 0,0" /></g><g
           transform="translate(54.9706,142.6854)"
           id="g236"><path
             id="path238"
             style="fill:#e41d25;fill-opacity:1;fill-rule:nonzero;stroke:none"
             d="M 0,0 3.058,2.221 C 3.643,2.645 4.479,2.042 4.308,1.316 L 3.981,-0.079 C 3.704,-1.267 3.027,-2.297 2.067,-2.998 l -3.051,-2.215 c -0.585,-0.43 -1.42,0.176 -1.249,0.899 l 0.322,1.396 C -1.63,-1.728 -0.956,-0.701 0,0" /></g><g
           transform="translate(54.0936,135.4979)"
           id="g240"><path
             id="path242"
             style="fill:#e41d25;fill-opacity:1;fill-rule:nonzero;stroke:none"
             d="M 0,0 2.893,2.425 C 3.447,2.892 4.325,2.343 4.203,1.612 L 3.975,0.198 C 3.785,-1.011 3.182,-2.081 2.273,-2.846 l -2.892,-2.422 c -0.552,-0.466 -1.43,0.073 -1.308,0.808 l 0.223,1.416 C -1.509,-1.837 -0.905,-0.765 0,0" /></g><g
           transform="translate(53.7274,128.2621)"
           id="g244"><path
             id="path246"
             style="fill:#e41d25;fill-opacity:1;fill-rule:nonzero;stroke:none"
             d="M 0,0 2.713,2.626 C 3.234,3.123 4.143,2.644 4.075,1.901 L 3.95,0.475 C 3.841,-0.741 3.313,-1.853 2.46,-2.678 L -0.259,-5.299 C -0.777,-5.798 -1.688,-5.32 -1.618,-4.58 l 0.131,1.429 C -1.381,-1.938 -0.859,-0.823 0,0" /></g><g
           transform="translate(53.8583,121.0223)"
           id="g248"><path
             id="path250"
             style="fill:#e41d25;fill-opacity:1;fill-rule:nonzero;stroke:none"
             d="M 0,0 2.527,2.803 C 3.012,3.336 3.95,2.925 3.938,2.182 L 3.904,0.747 C 3.884,-0.469 3.438,-1.618 2.64,-2.499 L 0.116,-5.305 c -0.481,-0.539 -1.424,-0.118 -1.408,0.625 l 0.03,1.432 C -1.24,-2.023 -0.795,-0.88 0,0" /></g><g
           transform="translate(54.4989,113.8104)"
           id="g252"><path
             id="path254"
             style="fill:#e41d25;fill-opacity:1;fill-rule:nonzero;stroke:none"
             d="M 0,0 2.322,2.974 C 2.773,3.541 3.733,3.193 3.773,2.453 L 3.85,1.015 C 3.904,-0.198 3.542,-1.377 2.81,-2.31 L 0.484,-5.283 c -0.442,-0.57 -1.414,-0.22 -1.451,0.524 L -1.04,-3.327 C -1.098,-2.111 -0.731,-0.929 0,0" /></g><g
           transform="translate(55.6415,106.6566)"
           id="g256"><path
             id="path258"
             style="fill:#e41d25;fill-opacity:1;fill-rule:nonzero;stroke:none"
             d="M 0,0 2.109,3.126 C 2.512,3.732 3.506,3.452 3.591,2.711 L 3.765,1.286 C 3.908,0.076 3.628,-1.118 2.966,-2.103 L 0.851,-5.232 c -0.403,-0.603 -1.396,-0.319 -1.482,0.421 l -0.171,1.419 C -0.948,-2.179 -0.664,-0.984 0,0" /></g><g
           transform="translate(57.2753,99.6029)"
           id="g260"><path
             id="path262"
             style="fill:#e41d25;fill-opacity:1;fill-rule:nonzero;stroke:none"
             d="M 0,0 1.887,3.27 C 2.25,3.894 3.259,3.681 3.398,2.949 L 3.67,1.544 C 3.896,0.347 3.703,-0.868 3.103,-1.895 L 1.22,-5.165 C 0.854,-5.789 -0.152,-5.579 -0.293,-4.848 L -0.561,-3.44 C -0.789,-2.242 -0.588,-1.027 0,0" /></g><g
           transform="translate(59.4032,92.6805)"
           id="g264"><path
             id="path266"
             style="fill:#e41d25;fill-opacity:1;fill-rule:nonzero;stroke:none"
             d="M 0,0 1.655,3.397 C 1.972,4.04 2.989,3.9 3.179,3.184 L 3.545,1.797 C 3.864,0.618 3.746,-0.604 3.228,-1.676 L 1.572,-5.067 c -0.313,-0.649 -1.341,-0.506 -1.53,0.21 l -0.365,1.383 C -0.638,-2.292 -0.524,-1.066 0,0" /></g><g
           transform="translate(62.0058,85.9222)"
           id="g268"><path
             id="path270"
             style="fill:#e41d25;fill-opacity:1;fill-rule:nonzero;stroke:none"
             d="M 0,0 1.411,3.498 C 1.686,4.171 2.713,4.104 2.954,3.395 L 3.417,2.042 C 3.813,0.884 3.786,-0.344 3.341,-1.447 L 1.927,-4.942 C 1.658,-5.615 0.628,-5.545 0.391,-4.838 l -0.467,1.353 C -0.466,-2.328 -0.441,-1.103 0,0" /></g><g
           transform="translate(65.0722,79.3656)"
           id="g272"><path
             id="path274"
             style="fill:#e41d25;fill-opacity:1;fill-rule:nonzero;stroke:none"
             d="M 0,0 1.168,3.586 C 1.391,4.281 2.417,4.281 2.707,3.592 L 3.265,2.27 C 3.737,1.152 3.798,-0.083 3.432,-1.209 L 2.268,-4.799 C 2.042,-5.487 1.013,-5.487 0.726,-4.805 L 0.171,-3.482 C -0.308,-2.355 -0.362,-1.13 0,0" /></g><g
           transform="translate(68.5897,73.034)"
           id="g276"><path
             id="path278"
             style="fill:#e41d25;fill-opacity:1;fill-rule:nonzero;stroke:none"
             d="m 0,0 0.915,3.659 c 0.173,0.707 1.206,0.78 1.539,0.113 L 3.106,2.499 C 3.651,1.405 3.795,0.186 3.512,-0.966 L 2.594,-4.631 C 2.42,-5.329 1.396,-5.402 1.058,-4.738 L 0.411,-3.461 C -0.138,-2.374 -0.283,-1.148 0,0" /></g><g
           transform="translate(72.5399,66.9676)"
           id="g280"><path
             id="path282"
             style="fill:#e41d25;fill-opacity:1;fill-rule:nonzero;stroke:none"
             d="m 0,0 0.655,3.714 c 0.128,0.713 1.144,0.86 1.531,0.223 L 2.923,2.703 C 3.548,1.655 3.773,0.442 3.569,-0.719 L 2.917,-4.436 C 2.789,-5.152 1.771,-5.295 1.387,-4.658 l -0.735,1.23 C 0.03,-2.376 -0.201,-1.17 0,0" /></g><g
           transform="translate(76.9052,61.1879)"
           id="g284"><path
             id="path286"
             style="fill:#e41d25;fill-opacity:1;fill-rule:nonzero;stroke:none"
             d="M 0,0 0.399,3.751 C 0.472,4.47 1.475,4.689 1.908,4.077 L 2.725,2.901 C 3.426,1.898 3.736,0.707 3.611,-0.469 L 3.215,-4.223 C 3.143,-4.939 2.133,-5.158 1.71,-4.546 L 0.89,-3.37 C 0.195,-2.371 -0.119,-1.176 0,0" /></g><g
           transform="translate(81.6688,55.722)"
           id="g288"><path
             id="path290"
             style="fill:#e41d25;fill-opacity:1;fill-rule:nonzero;stroke:none"
             d="m 0,0 0.134,3.771 c 0.024,0.723 1.012,1.013 1.478,0.43 L 2.515,3.086 C 3.28,2.136 3.673,0.972 3.63,-0.213 L 3.499,-3.985 C 3.478,-4.708 2.487,-4.994 2.021,-4.412 L 1.122,-3.297 C 0.354,-2.343 -0.04,-1.183 0,0" /></g><g
           transform="translate(86.7958,50.6063)"
           id="g292"><path
             id="path294"
             style="fill:#e41d25;fill-opacity:1;fill-rule:nonzero;stroke:none"
             d="M 0,0 -0.131,3.775 C -0.149,4.5 0.811,4.851 1.316,4.305 L 2.292,3.257 C 3.121,2.364 3.597,1.225 3.643,0.042 L 3.771,-3.727 C 3.795,-4.455 2.829,-4.808 2.319,-4.257 L 1.351,-3.208 C 0.521,-2.313 0.04,-1.179 0,0" /></g><g
           transform="translate(92.2704,45.8651)"
           id="g296"><path
             id="path298"
             style="fill:#e41d25;fill-opacity:1;fill-rule:nonzero;stroke:none"
             d="M 0,0 -0.396,3.754 C -0.47,4.47 0.463,4.896 1.009,4.384 L 2.058,3.403 C 2.95,2.572 3.499,1.472 3.627,0.29 L 4.023,-3.464 C 4.097,-4.18 3.157,-4.598 2.618,-4.095 L 1.566,-3.111 C 0.673,-2.279 0.122,-1.179 0,0" /></g><g
           transform="translate(98.0585,41.514)"
           id="g300"><path
             id="path302"
             style="fill:#e41d25;fill-opacity:1;fill-rule:nonzero;stroke:none"
             d="m 0,0 -0.655,3.714 c -0.122,0.713 0.78,1.201 1.362,0.729 L 1.819,3.541 C 2.765,2.767 3.389,1.709 3.594,0.542 L 4.252,-3.172 C 4.377,-3.885 3.472,-4.366 2.896,-3.903 L 1.78,-2.998 C 0.835,-2.224 0.204,-1.173 0,0" /></g><g
           transform="translate(104.1386,37.5746)"
           id="g304"><path
             id="path306"
             style="fill:#e41d25;fill-opacity:1;fill-rule:nonzero;stroke:none"
             d="m 0,0 -0.914,3.663 c -0.177,0.7 0.698,1.249 1.308,0.819 L 1.564,3.656 C 2.562,2.956 3.265,1.944 3.549,0.792 L 4.466,-2.867 C 4.64,-3.571 3.769,-4.116 3.158,-3.684 L 1.985,-2.867 C 0.988,-2.16 0.284,-1.151 0,0" /></g><g
           transform="translate(110.4794,34.0707)"
           id="g308"><path
             id="path310"
             style="fill:#e41d25;fill-opacity:1;fill-rule:nonzero;stroke:none"
             d="M 0,0 -1.168,3.589 C -1.39,4.275 -0.564,4.884 0.076,4.497 L 1.305,3.757 C 2.344,3.123 3.118,2.167 3.483,1.042 L 4.651,-2.553 C 4.877,-3.236 4.041,-3.845 3.401,-3.464 L 2.179,-2.718 C 1.137,-2.087 0.365,-1.127 0,0" /></g><g
           transform="translate(117.0477,31.0209)"
           id="g312"><path
             id="path314"
             style="fill:#e41d25;fill-opacity:1;fill-rule:nonzero;stroke:none"
             d="m 0,0 -1.414,3.495 c -0.272,0.67 0.515,1.334 1.18,0.996 L 1.036,3.839 C 2.127,3.281 2.966,2.376 3.404,1.276 L 4.816,-2.221 C 5.093,-2.892 4.307,-3.556 3.643,-3.217 L 2.365,-2.563 C 1.277,-2.008 0.445,-1.103 0,0" /></g><g
           transform="translate(123.8143,28.431)"
           id="g316"><path
             id="path318"
             style="fill:#e41d25;fill-opacity:1;fill-rule:nonzero;stroke:none"
             d="m 0,0 -1.652,3.391 c -0.32,0.649 0.415,1.368 1.103,1.076 L 0.768,3.9 C 1.893,3.418 2.789,2.575 3.311,1.511 L 4.962,-1.88 C 5.276,-2.529 4.541,-3.245 3.855,-2.952 L 2.539,-2.389 C 1.414,-1.907 0.519,-1.066 0,0" /></g><g
           transform="translate(130.746,26.3226)"
           id="g320"><path
             id="path322"
             style="fill:#e41d25;fill-opacity:1;fill-rule:nonzero;stroke:none"
             d="m 0,0 -1.887,3.266 c -0.366,0.631 0.317,1.393 1.028,1.146 L 0.49,3.946 C 1.648,3.543 2.6,2.767 3.19,1.74 L 5.078,-1.527 C 5.443,-2.157 4.755,-2.922 4.047,-2.675 L 2.7,-2.206 C 1.542,-1.807 0.591,-1.027 0,0" /></g><g
           transform="translate(137.8017,24.7045)"
           id="g324"><path
             id="path326"
             style="fill:#e41d25;fill-opacity:1;fill-rule:nonzero;stroke:none"
             d="m 0,0 -2.112,3.12 c -0.406,0.607 0.228,1.417 0.948,1.222 L 0.214,3.967 C 1.396,3.647 2.402,2.935 3.066,1.95 l 2.11,-3.126 C 5.581,-1.773 4.95,-2.586 4.231,-2.395 L 2.847,-2.017 C 1.664,-1.697 0.661,-0.987 0,0" /></g><g
           transform="translate(144.9589,23.5741)"
           id="g328"><path
             id="path330"
             style="fill:#e41d25;fill-opacity:1;fill-rule:nonzero;stroke:none"
             d="m 0,0 -2.319,2.968 c -0.452,0.573 0.124,1.429 0.852,1.282 L -0.062,3.974 C 1.14,3.739 2.191,3.099 2.923,2.167 L 5.245,-0.807 C 5.687,-1.377 5.117,-2.23 4.386,-2.09 L 2.983,-1.81 C 1.78,-1.575 0.731,-0.941 0,0" /></g><g
           transform="translate(152.1737,22.9466)"
           id="g332"><path
             id="path334"
             style="fill:#e41d25;fill-opacity:1;fill-rule:nonzero;stroke:none"
             d="m 0,0 -2.524,2.803 c -0.485,0.54 0.027,1.432 0.768,1.338 L -0.339,3.967 C 0.877,3.818 1.969,3.251 2.764,2.368 L 5.291,-0.436 C 5.77,-0.975 5.264,-1.868 4.52,-1.773 L 3.1,-1.594 C 1.89,-1.441 0.795,-0.881 0,0" /></g><g
           transform="translate(159.4188,22.828)"
           id="g336"><path
             id="path338"
             style="fill:#e41d25;fill-opacity:1;fill-rule:nonzero;stroke:none"
             d="m 0,0 -2.713,2.626 c -0.521,0.5 -0.079,1.423 0.674,1.383 L -0.613,3.927 C 0.609,3.863 1.74,3.379 2.594,2.559 l 2.713,-2.626 c 0.521,-0.5 0.076,-1.426 -0.671,-1.387 l -1.43,0.08 C 1.98,-1.307 0.854,-0.82 0,0" /></g><g
           transform="translate(166.6522,23.2147)"
           id="g340"><path
             id="path342"
             style="fill:#e41d25;fill-opacity:1;fill-rule:nonzero;stroke:none"
             d="m 0,0 -2.89,2.432 c -0.555,0.465 -0.174,1.413 0.57,1.425 l 1.432,0.022 C 0.335,3.9 1.496,3.495 2.404,2.727 L 5.3,0.305 c 0.552,-0.46 0.174,-1.42 -0.576,-1.429 L 3.291,-1.143 C 2.066,-1.164 0.908,-0.759 0,0" /></g><g
           transform="translate(173.8446,24.1048)"
           id="g344"><path
             id="path346"
             style="fill:#e41d25;fill-opacity:1;fill-rule:nonzero;stroke:none"
             d="m 0,0 -3.06,2.218 c -0.579,0.423 -0.265,1.407 0.476,1.469 l 1.433,0.118 C 0.059,3.912 1.25,3.589 2.207,2.888 L 5.268,0.673 C 5.85,0.247 5.536,-0.731 4.792,-0.79 L 3.362,-0.917 C 2.146,-1.018 0.957,-0.695 0,0" /></g><g
           transform="translate(180.9501,25.494)"
           id="g348"><path
             id="path350"
             style="fill:#e41d25;fill-opacity:1;fill-rule:nonzero;stroke:none"
             d="m 0,0 -3.197,2.008 c -0.616,0.375 -0.372,1.377 0.365,1.49 l 1.418,0.219 C -0.211,3.903 1,3.668 2.009,3.035 l 3.2,-1.996 C 5.824,0.655 5.574,-0.345 4.84,-0.46 L 3.423,-0.68 C 2.216,-0.868 1.012,-0.625 0,0" /></g><g
           transform="translate(187.9511,27.3797)"
           id="g352"><path
             id="path354"
             style="fill:#e41d25;fill-opacity:1;fill-rule:nonzero;stroke:none"
             d="m 0,0 -3.334,1.768 c -0.641,0.347 -0.46,1.355 0.262,1.52 l 1.393,0.319 C -0.481,3.879 0.738,3.723 1.789,3.169 L 5.118,1.396 C 5.758,1.057 5.584,0.042 4.855,-0.122 L 3.457,-0.439 C 2.265,-0.713 1.043,-0.561 0,0" /></g><g
           transform="translate(194.7968,29.7411)"
           id="g356"><path
             id="path358"
             style="fill:#e41d25;fill-opacity:1;fill-rule:nonzero;stroke:none"
             d="m 0,0 -3.45,1.539 c -0.658,0.292 -0.561,1.313 0.152,1.532 l 1.375,0.415 c 1.168,0.35 2.396,0.283 3.482,-0.198 L 5.006,1.755 C 5.667,1.457 5.563,0.436 4.853,0.216 L 3.481,-0.198 C 2.311,-0.548 1.079,-0.481 0,0" /></g><g
           transform="translate(201.4638,32.5746)"
           id="g360"><path
             id="path362"
             style="fill:#e41d25;fill-opacity:1;fill-rule:nonzero;stroke:none"
             d="m 0,0 -3.548,1.298 c -0.683,0.244 -0.646,1.271 0.042,1.539 l 1.345,0.509 c 1.145,0.432 2.374,0.45 3.486,0.042 L 4.87,2.103 C 5.554,1.855 5.52,0.823 4.828,0.558 L 3.483,0.049 C 2.341,-0.387 1.112,-0.402 0,0" /></g><g
           transform="translate(207.913,35.8714)"
           id="g364"><path
             id="path366"
             style="fill:#e41d25;fill-opacity:1;fill-rule:nonzero;stroke:none"
             d="M 0,0 -3.63,1.042 C -4.322,1.24 -4.364,2.27 -3.694,2.587 l 1.304,0.597 c 1.113,0.515 2.338,0.612 3.478,0.29 L 4.719,2.431 C 5.41,2.23 5.453,1.204 4.776,0.89 L 3.472,0.29 C 2.368,-0.229 1.14,-0.326 0,0" /></g><g
           transform="translate(214.1161,39.6102)"
           id="g368"><path
             id="path370"
             style="fill:#e41d25;fill-opacity:1;fill-rule:nonzero;stroke:none"
             d="m 0,0 -3.691,0.783 c -0.71,0.152 -0.821,1.17 -0.165,1.535 l 1.252,0.689 c 1.071,0.588 2.29,0.777 3.451,0.527 L 4.538,2.751 C 5.245,2.599 5.355,1.581 4.706,1.215 L 3.444,0.527 C 2.374,-0.061 1.161,-0.244 0,0" /></g><g
           transform="translate(220.0507,43.766)"
           id="g372"><path
             id="path374"
             style="fill:#e41d25;fill-opacity:1;fill-rule:nonzero;stroke:none"
             d="m 0,0 -3.743,0.53 c -0.723,0.097 -0.9,1.109 -0.272,1.514 l 1.204,0.777 c 1.025,0.664 2.228,0.939 3.399,0.774 L 4.328,3.068 C 5.041,2.964 5.224,1.953 4.603,1.554 L 3.396,0.774 C 2.368,0.106 1.17,-0.162 0,0" /></g><g
           transform="translate(225.6708,48.3299)"
           id="g376"><path
             id="path378"
             style="fill:#e41d25;fill-opacity:1;fill-rule:nonzero;stroke:none"
             d="m 0,0 -3.764,0.265 c -0.719,0.052 -0.975,1.043 -0.375,1.496 l 1.146,0.86 c 0.972,0.728 2.155,1.087 3.335,0.999 L 4.108,3.361 C 4.835,3.309 5.087,2.313 4.486,1.865 L 3.335,1.002 C 2.362,0.271 1.183,-0.079 0,0" /></g><g
           transform="translate(148.5956,209.722)"
           id="g380"><path
             id="path382"
             style="fill:#e41d25;fill-opacity:1;fill-rule:evenodd;stroke:none"
             d="M 0,0 5.513,3.966 3.381,10.472 8.856,6.455 14.385,10.493 12.257,4.043 17.806,0.034 11.014,0.065 8.915,-6.451 6.847,0.017 Z" /></g><g
           transform="translate(117.4491,199.9847)"
           id="g384"><path
             id="path386"
             style="fill:#e41d25;fill-opacity:1;fill-rule:evenodd;stroke:none"
             d="M 0,0 3.575,5.774 -0.885,10.969 5.712,9.353 9.274,15.199 9.775,8.426 16.437,6.845 10.15,4.275 10.705,-2.548 6.318,2.636 Z" /></g><g
           transform="translate(92.3993,179.0692)"
           id="g388"><path
             id="path390"
             style="fill:#e41d25;fill-opacity:1;fill-rule:evenodd;stroke:none"
             d="m 0,0 1.093,6.703 -6.108,3.092 6.713,1.032 1.054,6.764 3.055,-6.065 6.758,1.088 -4.824,-4.78 3.124,-6.092 -6.037,3.111 z" /></g><g
           transform="translate(77.2597,150.1595)"
           id="g392"><path
             id="path394"
             style="fill:#e41d25;fill-opacity:1;fill-rule:evenodd;stroke:none"
             d="m 0,0 -1.555,6.611 -6.826,0.52 5.807,3.522 -1.615,6.652 5.143,-4.434 5.828,3.592 L 4.154,10.201 9.372,5.768 2.604,6.332 Z" /></g><g
           transform="translate(74.3368,117.6576)"
           id="g396"><path
             id="path398"
             style="fill:#e41d25;fill-opacity:1;fill-rule:evenodd;stroke:none"
             d="m 0,0 -3.967,5.513 -6.506,-2.133 4.018,5.476 -4.038,5.528 6.449,-2.128 4.01,5.549 L -0.065,11.014 6.45,8.915 -0.018,6.846 Z" /></g><g
           transform="translate(84.0741,86.5101)"
           id="g400"><path
             id="path402"
             style="fill:#e41d25;fill-opacity:1;fill-rule:evenodd;stroke:none"
             d="m 0,0 -5.774,3.575 -5.195,-4.459 1.615,6.596 -5.845,3.562 6.772,0.502 1.581,6.661 2.571,-6.287 6.823,0.555 -5.185,-4.387 z" /></g><g
           transform="translate(104.9892,61.4603)"
           id="g404"><path
             id="path406"
             style="fill:#e41d25;fill-opacity:1;fill-rule:evenodd;stroke:none"
             d="m 0,0 -6.703,1.093 -3.092,-6.107 -1.032,6.712 -6.764,1.054 6.065,3.055 -1.088,6.759 4.78,-4.824 6.092,3.123 -3.112,-6.036 z" /></g><g
           transform="translate(133.8983,46.3212)"
           id="g408"><path
             id="path410"
             style="fill:#e41d25;fill-opacity:1;fill-rule:evenodd;stroke:none"
             d="m 0,0 -6.61,-1.555 -0.521,-6.826 -3.521,5.807 -6.653,-1.615 4.435,5.144 -3.592,5.827 6.262,-2.627 4.432,5.217 -0.563,-6.768 z" /></g><g
           transform="translate(166.4013,43.3978)"
           id="g412"><path
             id="path414"
             style="fill:#e41d25;fill-opacity:1;fill-rule:evenodd;stroke:none"
             d="m 0,0 -5.513,-3.966 2.132,-6.506 -5.475,4.017 -5.529,-4.038 2.128,6.449 -5.549,4.01 6.792,-0.031 2.099,6.516 2.068,-6.469 z" /></g><g
           transform="translate(197.5477,53.1351)"
           id="g416"><path
             id="path418"
             style="fill:#e41d25;fill-opacity:1;fill-rule:evenodd;stroke:none"
             d="m 0,0 -3.575,-5.774 4.46,-5.195 -6.597,1.616 -3.561,-5.846 -0.502,6.773 -6.662,1.581 6.287,2.57 -0.554,6.823 4.387,-5.184 z" /></g><g
           transform="translate(222.5975,74.0502)"
           id="g420"><path
             id="path422"
             style="fill:#e41d25;fill-opacity:1;fill-rule:evenodd;stroke:none"
             d="m 0,0 -1.093,-6.703 6.108,-3.092 -6.713,-1.032 -1.053,-6.764 -3.056,6.066 -6.758,-1.089 4.824,4.78 -3.124,6.092 6.037,-3.111 z" /></g><g
           transform="translate(237.7372,102.9598)"
           id="g424"><path
             id="path426"
             style="fill:#e41d25;fill-opacity:1;fill-rule:evenodd;stroke:none"
             d="m 0,0 1.555,-6.611 6.826,-0.519 -5.807,-3.522 1.615,-6.653 -5.143,4.434 -5.828,-3.591 2.628,6.262 -5.218,4.432 6.768,-0.564 z" /></g><g
           transform="translate(240.66,135.4623)"
           id="g428"><path
             id="path430"
             style="fill:#e41d25;fill-opacity:1;fill-rule:evenodd;stroke:none"
             d="m 0,0 3.967,-5.513 6.506,2.133 -4.018,-5.476 4.038,-5.529 -6.449,2.129 -4.01,-5.549 0.031,6.791 -6.515,2.099 6.468,2.069 z" /></g><g
           transform="translate(230.9237,166.6092)"
           id="g432"><path
             id="path434"
             style="fill:#e41d25;fill-opacity:1;fill-rule:evenodd;stroke:none"
             d="m 0,0 5.773,-3.575 5.195,4.459 -1.615,-6.596 5.845,-3.562 -6.772,-0.501 -1.581,-6.662 -2.571,6.287 -6.823,-0.555 5.185,4.387 z" /></g><g
           transform="translate(210.0077,191.659)"
           id="g436"><path
             id="path438"
             style="fill:#e41d25;fill-opacity:1;fill-rule:evenodd;stroke:none"
             d="m 0,0 6.703,-1.093 3.093,6.108 1.031,-6.713 6.765,-1.053 -6.066,-3.056 1.088,-6.759 -4.78,4.824 -6.092,-3.123 3.112,6.037 z" /></g><g
           transform="translate(181.0985,206.7982)"
           id="g440"><path
             id="path442"
             style="fill:#e41d25;fill-opacity:1;fill-rule:evenodd;stroke:none"
             d="m 0,0 6.611,1.555 0.52,6.826 3.521,-5.807 6.653,1.615 -4.434,-5.143 3.592,-5.828 -6.263,2.628 -4.432,-5.217 0.563,6.767 z" /></g><g
           transform="translate(157.5028,178.6815)"
           id="g444"><path
             id="path446"
             style="fill:#e41d25;fill-opacity:1;fill-rule:nonzero;stroke:none"
             d="m 0,0 c -28.738,0 -52.119,-23.381 -52.119,-52.119 0,-28.737 23.381,-52.115 52.119,-52.115 28.737,0 52.115,23.378 52.115,52.115 C 52.115,-23.381 28.737,0 0,0 m 0,-105.804 c -29.603,0 -53.686,24.081 -53.686,53.685 0,29.605 24.083,53.688 53.686,53.688 29.602,0 53.688,-24.083 53.688,-53.688 0,-29.604 -24.086,-53.685 -53.688,-53.685" /></g><g
           transform="translate(157.5028,197.2313)"
           id="g448"><path
             id="path450"
             style="fill:#e41d25;fill-opacity:1;fill-rule:nonzero;stroke:none"
             d="m 0,0 c -38.967,0 -70.671,-31.701 -70.671,-70.668 0,-38.967 31.704,-70.668 70.671,-70.668 38.967,0 70.668,31.701 70.668,70.668 C 70.668,-31.701 38.967,0 0,0 m 0,-142.955 c -39.86,0 -72.287,32.429 -72.287,72.287 0,39.857 32.427,72.286 72.287,72.286 39.857,0 72.286,-32.429 72.286,-72.286 0,-39.858 -32.429,-72.287 -72.286,-72.287" /></g><g
           transform="translate(127.4179,69.3407)"
           id="g452"><path
             id="path454"
             style="fill:#e41d25;fill-opacity:1;fill-rule:nonzero;stroke:none"
             d="m 0,0 2.081,-1.135 -0.805,-1.47 -5.952,3.246 0.802,1.472 2.115,-1.155 3.422,6.274 1.76,-0.96 z" /></g><g
           transform="translate(126.2577,77.0326)"
           id="g456"><path
             id="path458"
             style="fill:#e41d25;fill-opacity:1;fill-rule:nonzero;stroke:none"
             d="m 0,0 c -0.387,-0.59 -1.07,-0.75 -1.653,-0.369 -0.577,0.382 -0.7,1.057 -0.302,1.656 0.382,0.581 1.054,0.746 1.645,0.359 C 0.258,1.272 0.382,0.579 0,0" /></g><g
           transform="translate(118.7186,83.6498)"
           id="g460"><path
             id="path462"
             style="fill:#e41d25;fill-opacity:1;fill-rule:nonzero;stroke:none"
             d="m 0,0 c 0.397,-0.085 1.165,-0.446 2.004,-1.118 2.38,-1.906 2.42,-4.368 0.848,-6.331 -1.879,-2.349 -4.602,-2.314 -6.686,-0.646 -0.807,0.644 -1.289,1.302 -1.451,1.663 l 1.307,0.984 c 0.21,-0.386 0.55,-0.863 1.102,-1.302 1.236,-0.991 2.794,-1.013 4.023,0.52 1.102,1.377 0.981,2.9 -0.408,4.014 -0.47,0.375 -1.075,0.689 -1.48,0.813 z" /></g><g
           transform="translate(117.2372,84.0531)"
           id="g464"><path
             id="path466"
             style="fill:#e41d25;fill-opacity:1;fill-rule:nonzero;stroke:none"
             d="m 0,0 c -0.496,-0.503 -1.198,-0.528 -1.693,-0.042 -0.495,0.485 -0.484,1.171 0.023,1.683 0.486,0.494 1.178,0.53 1.683,0.034 C 0.499,1.198 0.486,0.496 0,0" /></g><g
           transform="translate(108.2509,90.1654)"
           id="g468"><path
             id="path470"
             style="fill:#e41d25;fill-opacity:1;fill-rule:nonzero;stroke:none"
             d="m 0,0 -1.156,-1.568 c -0.322,-0.443 -0.746,-0.964 -1.082,-1.384 l 0.014,-0.022 c 0.495,0.213 1.106,0.514 1.601,0.707 l 1.801,0.717 z m 2.54,-0.875 2.178,0.872 1.253,-1.645 -8.644,-3.197 -1.585,2.08 L 1.1,4.751 2.396,3.045 1.009,1.133 Z" /></g><g
           transform="translate(100.2919,93.0121)"
           id="g472"><path
             id="path474"
             style="fill:#e41d25;fill-opacity:1;fill-rule:nonzero;stroke:none"
             d="M 0,0 7.543,4.589 8.585,2.877 1.04,-1.712 Z m -0.211,-2.351 c -0.437,-0.267 -0.982,-0.123 -1.251,0.312 -0.258,0.427 -0.117,0.956 0.318,1.22 0.403,0.245 0.958,0.14 1.218,-0.286 0.273,-0.447 0.118,-1.002 -0.285,-1.246" /></g><g
           transform="translate(98.9921,95.2616)"
           id="g476"><path
             id="path478"
             style="fill:#e41d25;fill-opacity:1;fill-rule:nonzero;stroke:none"
             d="M 0,0 -0.881,1.799 5.541,4.941 3.996,8.093 5.503,8.83 7.924,3.878 Z" /></g><g
           transform="translate(98.8554,108.7977)"
           id="g480"><path
             id="path482"
             style="fill:#e41d25;fill-opacity:1;fill-rule:nonzero;stroke:none"
             d="m 0,0 1.071,-3.059 1.976,0.693 -1.2,3.415 1.541,0.541 1.861,-5.301 -8.313,-2.917 -1.799,5.128 1.541,0.542 1.138,-3.243 1.727,0.604 -1.073,3.059 z" /></g><g
           transform="translate(103.5829,111.5443)"
           id="g484"><path
             id="path486"
             style="fill:#e41d25;fill-opacity:1;fill-rule:nonzero;stroke:none"
             d="M 0,0 C -1.227,0.116 -2.632,0.134 -3.832,0.027 L -4.444,1.966 C -3.046,1.865 -1.57,1.621 -0.428,1.256 Z" /></g><g
           transform="translate(99.7069,124.0331)"
           id="g488"><path
             id="path490"
             style="fill:#e41d25;fill-opacity:1;fill-rule:nonzero;stroke:none"
             d="m 0,0 c 0.203,-0.334 0.476,-1.071 0.592,-2.059 l 0.465,-0.176 c 0.065,0.521 0.357,0.999 0.971,1.06 0.899,0.093 1.282,-0.684 1.358,-1.427 0.04,-0.39 0.006,-0.83 -0.134,-1.146 l -0.834,0.179 c 0.086,0.207 0.133,0.515 0.107,0.748 C 2.498,-2.56 2.386,-2.362 2.164,-2.384 1.892,-2.411 1.777,-2.727 1.775,-3.464 l -1.13,0.385 c -0.073,-2.509 -1.702,-3.952 -3.955,-4.183 -2.995,-0.307 -4.881,1.658 -5.153,4.313 -0.105,1.03 0.022,1.832 0.168,2.202 l 1.618,-0.241 c -0.129,-0.421 -0.228,-0.996 -0.154,-1.701 0.159,-1.574 1.238,-2.703 3.189,-2.501 1.759,0.179 2.76,1.336 2.579,3.107 -0.062,0.6 -0.26,1.25 -0.457,1.624 z" /></g><g
           transform="translate(96.3163,129.8133)"
           id="g492"><path
             id="path494"
             style="fill:#e41d25;fill-opacity:1;fill-rule:nonzero;stroke:none"
             d="m 0,0 -1.891,-0.478 c -0.528,-0.136 -1.186,-0.268 -1.718,-0.377 v -0.027 c 0.517,-0.151 1.181,-0.307 1.686,-0.472 l 1.848,-0.594 z M 1.404,-2.293 3.644,-3.01 3.563,-5.076 -5.147,-2.041 -5.046,0.574 3.876,2.968 3.792,0.822 1.505,0.23 Z" /></g><g
           transform="translate(91.705,135.245)"
           id="g496"><path
             id="path498"
             style="fill:#e41d25;fill-opacity:1;fill-rule:nonzero;stroke:none"
             d="M 0,0 0.334,1.974 7.376,0.788 7.959,4.247 9.61,3.969 8.697,-1.463 Z" /></g><g
           transform="translate(93.6161,144.4437)"
           id="g500"><path
             id="path502"
             style="fill:#e41d25;fill-opacity:1;fill-rule:nonzero;stroke:none"
             d="m 0,0 8.529,-2.231 -0.505,-1.935 -8.53,2.231 z" /></g><g
           transform="translate(97.7919,150.8871)"
           id="g504"><path
             id="path506"
             style="fill:#e41d25;fill-opacity:1;fill-rule:nonzero;stroke:none"
             d="m 0,0 c -0.281,-0.272 -0.729,-0.777 -1.025,-1.587 -0.296,-0.811 -0.072,-1.34 0.357,-1.496 0.528,-0.192 0.933,0.189 1.729,1.109 1.076,1.264 2.087,1.674 3.254,1.246 1.18,-0.43 1.923,-1.565 1.613,-3.29 L 6.345,-4.435 C 6.626,-4.009 7.104,-3.694 7.68,-3.907 8.527,-4.217 8.532,-5.082 8.276,-5.78 8.137,-6.162 7.919,-6.528 7.655,-6.752 l -0.671,0.525 c 0.162,0.134 0.339,0.39 0.423,0.624 0.091,0.246 0.076,0.473 -0.131,0.549 C 7.017,-4.96 6.773,-5.203 6.454,-5.853 L 5.645,-5.056 C 5.292,-5.986 4.726,-6.81 4.303,-7.169 l -1.411,0.947 c 0.443,0.409 0.984,1.088 1.276,1.887 0.314,0.86 0.124,1.445 -0.417,1.643 C 3.235,-2.503 2.796,-2.789 2.077,-3.655 1.095,-4.854 0.006,-5.474 -1.2,-5.033 c -1.41,0.516 -2.063,2.092 -1.347,4.043 0.339,0.935 0.789,1.551 1.189,1.961 z" /></g><g
           transform="translate(105.6005,158.5755)"
           id="g508"><path
             id="path510"
             style="fill:#e41d25;fill-opacity:1;fill-rule:nonzero;stroke:none"
             d="M 0,0 C -0.946,0.481 -2.088,1.068 -3.21,1.69 L -3.229,1.656 c 0.852,-0.786 1.773,-1.717 2.513,-2.515 l 2.491,-2.61 -0.756,-1.362 -3.445,0.832 c -1.044,0.25 -2.289,0.597 -3.4,0.973 L -5.837,-3.05 c 1.019,-0.623 2.188,-1.318 3.117,-1.908 l 2.856,-1.763 -0.897,-1.614 -7.443,4.771 1.29,2.324 2.994,-0.673 c 1.027,-0.255 2.12,-0.547 3.123,-0.878 l 0.018,0.035 c -0.774,0.714 -1.645,1.541 -2.364,2.269 l -2.11,2.246 1.264,2.28 7.954,-3.857 -0.948,-1.705 z" /></g><g
           transform="translate(110.2225,165.5892)"
           id="g512"><path
             id="path514"
             style="fill:#e41d25;fill-opacity:1;fill-rule:nonzero;stroke:none"
             d="m 0,0 -1.805,0.74 c -0.507,0.205 -1.113,0.491 -1.606,0.716 l -0.015,-0.02 c 0.325,-0.429 0.766,-0.95 1.074,-1.379 l 1.131,-1.58 z M -0.232,-2.68 1.142,-4.585 -0.152,-6.199 -5.351,1.418 -3.717,3.461 4.88,0.083 3.538,-1.593 1.343,-0.708 Z" /></g><g
           transform="translate(119.078,169.411)"
           id="g516"><path
             id="path518"
             style="fill:#e41d25;fill-opacity:1;fill-rule:nonzero;stroke:none"
             d="m 0,0 -7.897,4.842 1.658,1.424 3.244,-2.126 c 0.913,-0.597 1.778,-1.182 2.654,-1.879 l 0.029,0.027 c -0.521,0.948 -0.997,1.92 -1.425,2.88 l -1.605,3.591 1.605,1.383 3.504,-8.622 z" /></g><g
           transform="translate(126.2528,179.3407)"
           id="g520"><path
             id="path522"
             style="fill:#e41d25;fill-opacity:1;fill-rule:nonzero;stroke:none"
             d="m 0,0 -2.716,-1.776 1.146,-1.753 3.033,1.982 0.895,-1.368 -4.711,-3.078 -4.824,7.384 4.557,2.978 0.897,-1.371 -2.881,-1.882 1,-1.533 2.716,1.776 z" /></g><g
           transform="translate(131.0477,180.0394)"
           id="g524"><path
             id="path526"
             style="fill:#e41d25;fill-opacity:1;fill-rule:nonzero;stroke:none"
             d="M 0,0 C 0.599,-0.033 1.465,0.049 2.241,0.393 3.077,0.764 3.367,1.307 3.133,1.833 2.911,2.335 2.401,2.452 1.281,2.37 -0.266,2.242 -1.468,2.597 -1.986,3.769 c -0.609,1.374 0.07,2.934 1.971,3.777 0.91,0.402 1.663,0.507 2.237,0.505 L 2.467,6.399 C 2.074,6.412 1.401,6.385 0.613,6.036 -0.177,5.685 -0.398,5.158 -0.215,4.739 0.014,4.227 0.569,4.199 1.782,4.266 3.438,4.371 4.437,3.927 4.937,2.792 5.538,1.44 5.009,-0.168 2.795,-1.148 1.875,-1.556 0.86,-1.719 0.296,-1.669 Z" /></g><g
           transform="translate(138.6229,185.6092)"
           id="g528"><path
             id="path530"
             style="fill:#e41d25;fill-opacity:1;fill-rule:nonzero;stroke:none"
             d="M 0,0 C 0.471,-1.663 1.587,-2.613 2.87,-2.25 4.169,-1.881 4.561,-0.436 4.093,1.215 3.66,2.74 2.559,3.842 1.234,3.468 -0.062,3.099 -0.466,1.65 0,0 M 6.102,1.854 C 6.892,-0.93 5.683,-3.097 3.201,-3.801 0.683,-4.516 -1.33,-3.032 -2.017,-0.614 -2.739,1.932 -1.653,4.294 0.852,5.005 3.461,5.744 5.437,4.196 6.102,1.854" /></g><g
           transform="translate(146.8417,185.2879)"
           id="g532"><path
             id="path534"
             style="fill:#e41d25;fill-opacity:1;fill-rule:nonzero;stroke:none"
             d="M 0,0 C 0.568,-0.199 1.425,-0.359 2.268,-0.244 3.174,-0.121 3.602,0.321 3.523,0.892 3.451,1.437 2.994,1.692 1.89,1.924 0.367,2.231 -0.688,2.906 -0.862,4.177 -1.063,5.669 0.023,6.98 2.086,7.262 3.073,7.397 3.827,7.289 4.377,7.126 L 4.154,5.47 C 3.78,5.591 3.126,5.753 2.27,5.635 1.412,5.519 1.051,5.072 1.113,4.619 1.187,4.061 1.714,3.882 2.903,3.607 4.524,3.25 5.361,2.543 5.53,1.312 5.729,-0.154 4.772,-1.554 2.371,-1.882 1.372,-2.019 0.351,-1.894 -0.18,-1.688 Z" /></g><g
           transform="translate(156.0585,184.1224)"
           id="g536"><path
             id="path538"
             style="fill:#e41d25;fill-opacity:1;fill-rule:nonzero;stroke:none"
             d="M 0,0 -0.02,3.608 -2.83,8.796 -0.557,8.81 0.354,6.696 C 0.634,6.056 0.821,5.588 1.044,5.013 H 1.069 C 1.264,5.562 1.471,6.075 1.73,6.703 L 2.609,8.825 4.844,8.837 1.969,3.684 1.986,0.011 Z" /></g><g
           transform="translate(165.7538,187.3314)"
           id="g540"><path
             id="path542"
             style="fill:#e41d25;fill-opacity:1;fill-rule:nonzero;stroke:none"
             d="M 0,0 -0.322,1.922 C -0.412,2.461 -0.49,3.129 -0.556,3.665 L -0.583,3.667 C -0.775,3.164 -0.986,2.518 -1.191,2.029 L -1.936,0.235 Z m -2.402,-1.21 -0.895,-2.17 -2.052,0.249 3.74,8.425 2.596,-0.315 1.649,-9.081 -2.128,0.259 -0.405,2.328 z" /></g><g
           transform="translate(171.5497,191.4857)"
           id="g544"><path
             id="path546"
             style="fill:#e41d25;fill-opacity:1;fill-rule:nonzero;stroke:none"
             d="m 0,0 1.943,-0.496 -1.759,-6.913 3.4,-0.865 -0.412,-1.622 -5.347,1.36 z" /></g><g
           transform="translate(183.4247,187.7269)"
           id="g548"><path
             id="path550"
             style="fill:#e41d25;fill-opacity:1;fill-rule:nonzero;stroke:none"
             d="M 0,0 -1.396,-3.089 1.6,-4.441 2.996,-1.352 4.81,-2.17 l -3.631,-8.039 -1.813,0.818 1.519,3.363 -2.996,1.352 -1.518,-3.364 -1.824,0.824 3.629,8.04 z" /></g><g
           transform="translate(191.4403,185.2606)"
           id="g552"><path
             id="path554"
             style="fill:#e41d25;fill-opacity:1;fill-rule:nonzero;stroke:none"
             d="M 0,0 C 0.26,0.437 0.808,0.566 1.247,0.306 1.674,0.053 1.799,-0.479 1.536,-0.917 1.296,-1.321 0.757,-1.486 0.33,-1.231 -0.118,-0.965 -0.243,-0.405 0,0 m 0.913,-2.172 -4.512,-7.568 -1.716,1.024 4.508,7.567 z" /></g><g
           transform="translate(189.4755,175.8666)"
           id="g556"><path
             id="path558"
             style="fill:#e41d25;fill-opacity:1;fill-rule:nonzero;stroke:none"
             d="M 0,0 6.97,2.373 7.001,2.416 3.935,4.675 4.915,6.002 10.065,2.204 9.383,1.277 2.531,-1.086 2.502,-1.13 5.86,-3.606 4.884,-4.934 l -5.521,4.07 z" /></g><g
           transform="translate(202.9267,167.2933)"
           id="g560"><path
             id="path562"
             style="fill:#e41d25;fill-opacity:1;fill-rule:nonzero;stroke:none"
             d="M 0,0 C 0.728,0.77 1.617,1.695 2.534,2.593 L 2.507,2.622 C 1.511,2.03 0.355,1.412 -0.619,0.932 l -3.212,-1.644 -1.089,1.113 1.779,3.064 c 0.537,0.929 1.224,2.025 1.901,2.98 L -1.26,6.463 C -2.146,5.668 -3.146,4.742 -3.976,4.02 L -6.479,1.786 -7.772,3.104 -1.078,8.877 0.782,6.979 -0.717,4.303 C -1.253,3.39 -1.847,2.423 -2.447,1.561 L -2.42,1.533 c 0.902,0.536 1.946,1.137 2.85,1.617 l 2.753,1.38 1.824,-1.86 -5.962,-6.521 -1.367,1.393 z" /></g><g
           transform="translate(208.8808,160.0941)"
           id="g564"><path
             id="path566"
             style="fill:#e41d25;fill-opacity:1;fill-rule:nonzero;stroke:none"
             d="M 0,0 -1.884,2.64 -3.591,1.423 -1.481,-1.525 -2.813,-2.476 -6.083,2.102 1.094,7.227 4.254,2.798 2.925,1.847 0.927,4.647 -0.564,3.583 1.322,0.943 Z" /></g><g
           transform="translate(213.8446,158.411)"
           id="g568"><path
             id="path570"
             style="fill:#e41d25;fill-opacity:1;fill-rule:nonzero;stroke:none"
             d="m 0,0 -1.131,2.079 1.469,0.8 3.238,-5.95 -1.469,-0.8 -1.15,2.114 -6.27,-3.413 -0.959,1.756 z" /></g><g
           transform="translate(218.245,153.4969)"
           id="g572"><path
             id="path574"
             style="fill:#e41d25;fill-opacity:1;fill-rule:nonzero;stroke:none"
             d="m 0,0 0.744,-1.858 -6.633,-2.658 1.303,-3.257 -1.554,-0.623 -2.049,5.114 z" /></g><g
           transform="translate(217.3759,139.9925)"
           id="g576"><path
             id="path578"
             style="fill:#e41d25;fill-opacity:1;fill-rule:nonzero;stroke:none"
             d="M 0,0 -0.843,3.131 -2.865,2.589 -1.921,-0.91 -3.5,-1.334 -4.96,4.096 3.551,6.387 4.963,1.133 3.384,0.708 2.49,4.03 0.725,3.555 1.564,0.423 Z" /></g><g
           transform="translate(219.2821,135.9857)"
           id="g580"><path
             id="path582"
             style="fill:#e41d25;fill-opacity:1;fill-rule:nonzero;stroke:none"
             d="m 0,0 0.104,-0.781 c 0.131,-0.984 0.706,-1.501 1.468,-1.398 0.804,0.11 1.133,0.708 1.024,1.617 -0.064,0.479 -0.14,0.747 -0.185,0.885 z M 3.496,2.463 C 3.686,1.841 3.891,0.906 4.032,-0.145 4.206,-1.441 4.136,-2.375 3.725,-3.064 3.38,-3.638 2.809,-4.007 2.006,-4.114 0.89,-4.265 0.018,-3.576 -0.356,-2.859 l -0.039,-0.006 c -0.165,-0.642 -0.7,-1.06 -1.477,-1.387 -0.947,-0.405 -2.053,-0.831 -2.367,-1.045 l -0.275,2.022 c 0.229,0.176 0.915,0.479 1.957,0.884 1.057,0.38 1.304,0.797 1.209,1.603 l -0.081,0.596 -3.435,-0.463 -0.263,1.959 z" /></g><g
           transform="translate(220.3798,125.0985)"
           id="g584"><path
             id="path586"
             style="fill:#e41d25;fill-opacity:1;fill-rule:nonzero;stroke:none"
             d="m 0,0 -0.026,-0.654 c -0.048,-1.045 0.361,-1.626 1.012,-1.654 0.668,-0.028 1.042,0.465 1.082,1.368 0.02,0.43 0.004,0.68 -0.014,0.853 z m -3.908,0.167 c -0.034,-0.194 -0.045,-0.43 -0.06,-0.77 -0.037,-0.902 0.269,-1.713 1.197,-1.751 0.889,-0.039 1.274,0.742 1.317,1.737 L -1.425,0.06 Z M 3.457,1.828 C 3.539,1.302 3.571,0.24 3.531,-0.755 3.478,-1.97 3.328,-2.71 2.922,-3.333 2.569,-3.934 1.948,-4.352 1.149,-4.319 c -0.784,0.034 -1.496,0.523 -1.818,1.532 l -0.027,0.002 c -0.317,-0.995 -1.107,-1.708 -2.244,-1.659 -0.799,0.034 -1.41,0.428 -1.831,0.995 -0.481,0.662 -0.724,1.748 -0.648,3.5 0.04,0.978 0.139,1.708 0.224,2.149 z" /></g><g
           transform="translate(217.6679,114.7684)"
           id="g588"><path
             id="path590"
             style="fill:#e41d25;fill-opacity:1;fill-rule:nonzero;stroke:none"
             d="M 0,0 1.94,0.207 C 2.483,0.269 3.153,0.305 3.692,0.341 L 3.698,0.367 C 3.208,0.588 2.574,0.837 2.097,1.069 l -1.748,0.85 z m -1.067,2.469 -2.116,1.024 0.37,2.033 8.196,-4.228 -0.467,-2.576 -9.168,-1.115 0.384,2.112 2.348,0.267 z" /></g><g
           transform="translate(221.5009,108.6703)"
           id="g592"><path
             id="path594"
             style="fill:#e41d25;fill-opacity:1;fill-rule:nonzero;stroke:none"
             d="m 0,0 -0.621,-1.877 -3.704,1.226 -0.013,-0.038 c 0.264,-0.293 0.496,-0.591 0.731,-0.876 l 2.154,-2.821 -0.766,-2.323 -2.65,3.95 -5.776,-1.329 0.732,2.211 4.294,0.855 -0.643,1.011 -2.734,0.905 0.619,1.877 z" /></g><g
           transform="translate(211.788,98.0663)"
           id="g596"><path
             id="path598"
             style="fill:#e41d25;fill-opacity:1;fill-rule:nonzero;stroke:none"
             d="M 0,0 1.913,-0.355 C 2.452,-0.454 3.106,-0.61 3.631,-0.729 l 0.011,0.023 C 3.235,-0.352 2.701,0.065 2.313,0.425 L 0.882,1.737 Z m -0.316,2.669 -1.732,1.583 0.935,1.841 6.634,-6.39 -1.182,-2.331 -9.092,1.553 0.97,1.912 2.323,-0.418 z" /></g><g
           transform="translate(206.5087,96.1727)"
           id="g600"><path
             id="path602"
             style="fill:#e41d25;fill-opacity:1;fill-rule:nonzero;stroke:none"
             d="m 0,0 7.171,-5.128 -1.355,-1.894 -3.69,0.389 c -1.063,0.114 -2.261,0.328 -3.297,0.588 l -0.024,-0.033 c 1.026,-0.57 2.015,-1.231 3.091,-1.999 l 2.094,-1.499 -1.062,-1.491 -7.175,5.13 1.219,1.702 3.863,-0.447 C 1.904,-4.804 3.164,-4.996 4.257,-5.247 L 4.27,-5.208 C 3.291,-4.573 2.268,-3.87 1.097,-3.035 l -2.161,1.545 z" /></g><g
           transform="translate(207.5087,82.9017)"
           id="g604"><path
             id="path606"
             style="fill:#e41d25;fill-opacity:1;fill-rule:nonzero;stroke:none"
             d="m 0,0 -1.371,-1.452 -5.189,4.894 -2.401,-2.545 -1.219,1.147 3.777,4 z" /></g><g
           transform="translate(200.8075,76.3046)"
           id="g608"><path
             id="path610"
             style="fill:#e41d25;fill-opacity:1;fill-rule:nonzero;stroke:none"
             d="M 0,0 -5.842,6.599 -4.344,7.926 1.5,1.325 Z" /></g><g
           transform="translate(197.3768,70.8363)"
           id="g612"><path
             id="path614"
             style="fill:#e41d25;fill-opacity:1;fill-rule:nonzero;stroke:none"
             d="m 0,0 c -0.2,0.212 -0.541,0.354 -0.979,0.044 -0.45,-0.318 -0.454,-0.674 -0.325,-0.968 l -0.831,-0.59 c -0.53,0.795 -0.474,1.685 0.539,2.404 1.057,0.75 1.884,0.486 2.448,-0.284 z m -9.43,6.303 c 0.38,0.527 1.162,1.435 2.114,2.108 1.308,0.933 2.494,1.277 3.611,1.106 1.1,-0.151 2.129,-0.832 2.866,-1.895 C 0.848,5.223 0.078,2.624 -2.278,0.95 -3.21,0.292 -4.053,-0.034 -4.526,-0.112 L -5.105,1.431 C -4.59,1.54 -4.001,1.75 -3.212,2.31 -1.857,3.271 -1.378,4.766 -2.483,6.323 -3.537,7.807 -5.087,8.024 -6.42,7.077 -6.792,6.812 -7.061,6.558 -7.144,6.403 l 1.07,-1.505 1.108,0.788 0.9,-1.27 -2.678,-1.899 z" /></g><g
           transform="translate(188.7753,68.0589)"
           id="g616"><path
             id="path618"
             style="fill:#e41d25;fill-opacity:1;fill-rule:nonzero;stroke:none"
             d="M 0,0 -4.273,7.71 -2.525,8.683 1.75,0.971 Z" /></g><g
           transform="translate(157.5038,66.9491)"
           id="g620"><path
             id="path622"
             style="fill:#e41d25;fill-opacity:1;fill-rule:nonzero;stroke:none"
             d="m 0,0 c -1.401,0 -2.537,-1.135 -2.537,-2.536 0,-1.4 1.136,-2.535 2.537,-2.535 1.401,0 2.537,1.135 2.537,2.535 C 2.537,-1.135 1.401,0 0,0" /></g><g
           transform="translate(167.1952,151.8226)"
           id="g624"><path
             id="path626"
             style="fill:#e41d25;fill-opacity:1;fill-rule:nonzero;stroke:none"
             d="m 0,0 c 2.345,-1.498 4.273,-3.573 5.604,-6.012 1.194,-2.162 1.897,-4.597 2.003,-7.196 0.03,-0.275 0.028,-0.566 0.026,-0.841 -0.026,-4.204 -1.609,-8.031 -4.21,-10.935 -3.048,-3.421 -7.509,-5.564 -12.462,-5.534 -3.194,0.02 -6.185,0.94 -8.713,2.546 -2.741,1.714 -4.942,4.219 -6.284,7.208 -0.302,0.629 -0.542,1.287 -0.752,1.977 -0.48,1.562 -0.73,3.23 -0.719,4.941 0.036,5.886 3.155,11.048 7.806,13.955 -2.721,-2.414 -4.44,-5.92 -4.463,-9.832 -0.013,-1.972 0.404,-3.825 1.158,-5.51 0.272,-0.614 0.604,-1.212 0.968,-1.765 1.756,-2.731 4.511,-4.781 7.746,-5.642 1.053,-0.281 2.152,-0.426 3.299,-0.433 2.981,-0.018 5.738,0.943 7.965,2.595 3.225,2.411 5.342,6.235 5.37,10.576 v 0.016 C 4.347,-9.015 4.276,-8.174 4.112,-7.348 3.58,-4.471 2.098,-1.909 0,0" /></g><g
           transform="translate(159.7001,163.3641)"
           id="g628"><path
             id="path630"
             style="fill:#e41d25;fill-opacity:1;fill-rule:nonzero;stroke:none"
             d="m 0,0 3.607,2.577 -1.9,-5.706 4.855,-3.576 -6.023,0.037 -1.9,-5.706 -1.829,5.729 -6.008,0.037 2.103,1.515 2.78,2.001 -1.815,5.729 4.839,-3.561 z" /></g><g
           transform="translate(173.2225,91.2879)"
           id="g632"><path
             id="path634"
             style="fill:#e41d25;fill-opacity:1;fill-rule:nonzero;stroke:none"
             d="m 0,0 c 1.685,2.227 5.516,4.08 9.31,6.318 2.612,1.542 5.124,2.926 6.823,4.506 0.701,0.651 5.863,11.352 7.524,15.8 0.025,0.063 0.036,0.182 0.039,0.348 0.026,1.584 -0.804,7.525 -0.631,12.211 0.051,1.364 -0.853,1.865 -1.743,1.752 -0.867,-0.111 -1.457,-1.049 -1.791,-2.832 -0.12,-0.64 -0.441,-2.124 -0.623,-3.562 -0.324,-2.577 -0.658,-5.503 -0.658,-5.503 0,0 1.232,-0.255 1.722,-0.841 0.489,-0.585 0.469,-1.21 0.017,-2.058 -0.265,-0.496 -1.674,-2.244 -3.125,-4.283 -0.747,-1.051 -1.502,-2.32 -2.089,-3.019 -0.221,-0.263 -1.154,-0.99 -1.336,-1.125 -1.93,-1.431 -1.629,-1.086 -1.629,-1.086 0.283,0.406 1.157,1.104 2.233,2.419 0.584,0.712 1.102,1.721 1.989,3.23 1.289,2.194 1.457,2.021 2.741,4.101 0.581,0.938 -0.399,1.668 -1.582,1.618 -0.844,-0.036 -1.84,-0.498 -2.411,-0.786 -0.522,-0.263 -1.572,-0.7 -3.949,-3.117 C 10.229,23.479 9.423,22.244 8.651,21.352 6.84,19.254 5.567,18.155 4.649,17.841 2.81,17.211 -0.59,15.643 -4.618,14.235 -7.984,13.06 -13.305,9.125 -13.969,3.897 -14.24,1.759 -14.347,-3.2 -14.383,-7.991 c 4.951,0.134 9.696,1.097 14.102,2.765 C -0.521,-2.78 -0.529,-0.701 0,0" /></g><g
           transform="translate(141.663,91.2386)"
           id="g636"><path
             id="path638"
             style="fill:#e41d25;fill-opacity:1;fill-rule:nonzero;stroke:none"
             d="m 0,0 c 0.515,-0.681 0.521,-2.662 0.303,-5.017 4.393,-1.715 9.13,-2.732 14.079,-2.914 -0.035,4.773 -0.143,9.699 -0.413,11.828 -0.664,5.228 -5.985,9.163 -9.351,10.339 -4.028,1.407 -7.428,2.975 -9.267,3.605 -0.918,0.314 -2.191,1.413 -4.002,3.511 -0.772,0.893 -1.578,2.127 -2.18,2.739 -2.376,2.417 -3.427,2.854 -3.949,3.117 -0.571,0.288 -1.567,0.75 -2.41,0.786 -1.184,0.051 -2.163,-0.679 -1.583,-1.618 1.284,-2.08 1.452,-1.907 2.741,-4.101 0.887,-1.509 1.405,-2.518 1.989,-3.23 1.076,-1.314 1.95,-2.013 2.233,-2.419 0,0 0.301,-0.345 -1.629,1.086 -0.182,0.135 -1.115,0.862 -1.336,1.125 -0.587,0.699 -1.341,1.969 -2.089,3.019 -1.451,2.039 -2.86,3.787 -3.125,4.283 -0.452,0.848 -0.472,1.473 0.017,2.058 0.49,0.586 1.722,0.841 1.722,0.841 0,0 -0.334,2.926 -0.658,5.503 -0.182,1.438 -0.503,2.922 -0.623,3.562 -0.334,1.784 -0.924,2.721 -1.791,2.832 -0.89,0.113 -1.794,-0.388 -1.743,-1.752 0.173,-4.686 -0.657,-10.627 -0.631,-12.211 0.003,-0.166 0.014,-0.285 0.039,-0.348 1.661,-4.447 6.823,-15.149 7.524,-15.8 1.7,-1.58 4.211,-2.964 6.823,-4.506 C -5.516,4.08 -1.685,2.228 0,0" /></g></g></g></g></svg>